<?xml version="1.0" encoding="UTF-8" standalone="no"?>
<svg
   viewBox="0 0 755.9055 453.54331"
   width="200mm"
   height="120mm"
   version="1.1"
   id="svg30"
   sodipodi:docname="MinneQ-7.svg"
   xml:space="preserve"
   inkscape:version="1.4 (86a8ad7, 2024-10-11)"
   inkscape:export-filename="MinneQ-7.png"
   inkscape:export-xdpi="96"
   inkscape:export-ydpi="96"
   xmlns:inkscape="http://www.inkscape.org/namespaces/inkscape"
   xmlns:sodipodi="http://sodipodi.sourceforge.net/DTD/sodipodi-0.dtd"
   xmlns="http://www.w3.org/2000/svg"
   xmlns:svg="http://www.w3.org/2000/svg"><sodipodi:namedview
     id="namedview30"
     pagecolor="#ffffff"
     bordercolor="#000000"
     borderopacity="0.25"
     inkscape:showpageshadow="2"
     inkscape:pageopacity="0.0"
     inkscape:pagecheckerboard="0"
     inkscape:deskcolor="#d1d1d1"
     inkscape:zoom="0.97386899"
     inkscape:cx="283.40568"
     inkscape:cy="189.45053"
     inkscape:window-width="1920"
     inkscape:window-height="991"
     inkscape:window-x="-9"
     inkscape:window-y="-9"
     inkscape:window-maximized="1"
     inkscape:current-layer="g30"
     inkscape:document-units="mm"
     showgrid="true"><inkscape:grid
       id="grid1"
       units="mm"
       originx="0"
       originy="0"
       spacingx="3.7795275"
       spacingy="3.7795276"
       empcolor="#0099e5"
       empopacity="0.30196078"
       color="#0099e5"
       opacity="0.14901961"
       empspacing="5"
       enabled="true"
       visible="true"
       snapvisiblegridlinesonly="false" /></sodipodi:namedview><desc
     id="desc1">MinneQ.dxf - scale = 1.000000, origin = (0.000000, 0.000000), method = manual</desc><defs
     id="defs4"><marker
       id="DistanceX"
       orient="auto"
       refX="0"
       refY="0"
       style="overflow:visible"><path
         d="M 3,-3 -3,3 M 0,-5 V 5"
         style="stroke:#000000;stroke-width:0.5"
         id="path1" /></marker><pattern
       id="Hatch"
       patternUnits="userSpaceOnUse"
       width="8"
       height="8"
       x="0"
       y="0"><path
         d="M8 4 l-4,4"
         stroke="#000000"
         stroke-width="0.25"
         linecap="square"
         id="path2" /><path
         d="M6 2 l-4,4"
         stroke="#000000"
         stroke-width="0.25"
         linecap="square"
         id="path3" /><path
         d="M4 0 l-4,4"
         stroke="#000000"
         stroke-width="0.25"
         linecap="square"
         id="path4" /></pattern><symbol
       id="*MODEL_SPACE" /><symbol
       id="*PAPER_SPACE" /></defs><g
     inkscape:groupmode="layer"
     inkscape:label="0"
     id="g30"><path
       d="M 775,388.46707 H 372 l 40,65.07623 h 363 z"
       style="fill:#ffaec9;fill-opacity:1;stroke:none;stroke-width:1.04491"
       id="path40"
       inkscape:label="Stripe7" /><path
       d="M 775,323.38884 H 332 l 40,65.07623 h 402 z"
       style="fill:#fd6666;fill-opacity:1;stroke:none;stroke-width:1.04491"
       id="path39"
       inkscape:label="Stripe6" /><path
       d="M 775,258.3106 H 291 l 40,65.07623 h 443 z"
       style="fill:#ffc90e;fill-opacity:1;stroke:none;stroke-width:1.04491"
       id="path38"
       inkscape:label="Stripe5" /><path
       d="M 775,194.23354 H 291 l -20,32.03752 20,32.03754 h 483 z"
       style="fill:#ffffff;fill-opacity:1;stroke:none;stroke-width:1.04491"
       id="path37"
       inkscape:label="Stripe4" /><path
       d="M 775,130.15647 H 332 l -40,64.07507 h 483 z"
       style="fill:#b5e61d;fill-opacity:1;stroke:none;stroke-width:1.04491"
       id="path36"
       inkscape:label="Stripe3" /><path
       d="M 775,65.078238 H 372 l -40,65.076232 h 443 z"
       style="fill:#00a2e8;fill-opacity:1;stroke:none;stroke-width:1.04491"
       id="path35"
       inkscape:label="Stripe2" /><path
       d="M 411,2.2957486e-6 372,65.076236 H 775 V 2.2957486e-6 Z"
       style="fill:#99d9ea;fill-opacity:1;stroke:none;stroke-width:1.04491"
       id="path34"
       inkscape:label="Stripe1" /></g><g
     inkscape:groupmode="layer"
     id="layer1"
     inkscape:label="Flag"><path
       d="M 0,2.2957486e-6 V 453.5433 H 423 L 295,226.77165 423,2.2957486e-6 Z"
       style="fill:#002d5f;fill-opacity:1;stroke:none;stroke-width:0.999497"
       id="path31"
       inkscape:label="Chevron" /><path
       d="m 159,142.77165 -17,42 -42,-17 17,42 -42,17 42,17 -17,42 42,-17 17,42 17,-42 42,17 -17,-42 42,-17 -42,-17 17,-42 -42,17 z"
       style="fill:#ffffff;fill-opacity:1;stroke:none"
       id="Star" /></g></svg>
