<?xml version="1.0" encoding="UTF-8" standalone="no"?>
<svg
   viewBox="0 0 453.5433 453.54331"
   width="120mm"
   height="120mm"
   version="1.1"
   id="svg30"
   sodipodi:docname="MinneQ-7-sqaure.svg"
   xml:space="preserve"
   inkscape:version="1.4 (86a8ad7, 2024-10-11)"
   inkscape:export-filename="MinneQ-7-square.png"
   inkscape:export-xdpi="96"
   inkscape:export-ydpi="96"
   xmlns:inkscape="http://www.inkscape.org/namespaces/inkscape"
   xmlns:sodipodi="http://sodipodi.sourceforge.net/DTD/sodipodi-0.dtd"
   xmlns="http://www.w3.org/2000/svg"
   xmlns:svg="http://www.w3.org/2000/svg"><sodipodi:namedview
     id="namedview30"
     pagecolor="#ffffff"
     bordercolor="#000000"
     borderopacity="0.25"
     inkscape:showpageshadow="2"
     inkscape:pageopacity="0.0"
     inkscape:pagecheckerboard="0"
     inkscape:deskcolor="#d1d1d1"
     inkscape:zoom="0.97386899"
     inkscape:cx="-28.751301"
     inkscape:cy="177.12855"
     inkscape:window-width="1920"
     inkscape:window-height="991"
     inkscape:window-x="-9"
     inkscape:window-y="-9"
     inkscape:window-maximized="1"
     inkscape:current-layer="layer1"
     inkscape:document-units="mm" /><desc
     id="desc1">MinneQ.dxf - scale = 1.000000, origin = (0.000000, 0.000000), method = manual</desc><defs
     id="defs4"><marker
       id="DistanceX"
       orient="auto"
       refX="0"
       refY="0"
       style="overflow:visible"><path
         d="M 3,-3 -3,3 M 0,-5 V 5"
         style="stroke:#000000;stroke-width:0.5"
         id="path1" /></marker><pattern
       id="Hatch"
       patternUnits="userSpaceOnUse"
       width="8"
       height="8"
       x="0"
       y="0"><path
         d="M8 4 l-4,4"
         stroke="#000000"
         stroke-width="0.25"
         linecap="square"
         id="path2" /><path
         d="M6 2 l-4,4"
         stroke="#000000"
         stroke-width="0.25"
         linecap="square"
         id="path3" /><path
         d="M4 0 l-4,4"
         stroke="#000000"
         stroke-width="0.25"
         linecap="square"
         id="path4" /></pattern><symbol
       id="*MODEL_SPACE" /><symbol
       id="*PAPER_SPACE" /></defs><g
     inkscape:groupmode="layer"
     inkscape:label="0"
     id="g30"><path
       d="M 554.41,388.75 H 185.09555 l 36.71484,64.79102 H 554.41 Z"
       style="fill:#ffaec9;fill-opacity:1;stroke:none"
       id="path40"
       inkscape:label="Stripe7" /><path
       d="M 554.41,323.96094 H 148.3807 L 185.09555,388.75 H 554.41 Z"
       style="fill:#fd6666;fill-opacity:1;stroke:none"
       id="path39"
       inkscape:label="Stripe6" /><path
       d="M 554.41,259.16992 H 111.66586 l 36.71484,64.79102 H 554.41 Z"
       style="fill:#ffc90e;fill-opacity:1;stroke:none"
       id="path38"
       inkscape:label="Stripe5" /><path
       d="M 554.41,194.38086 H 111.66195 l -18.355466,32.39062 18.359376,32.39844 H 554.41 Z"
       style="fill:#ffffff;fill-opacity:1;stroke:none"
       id="path37"
       inkscape:label="Stripe4" /><path
       d="M 554.41,129.58008 H 148.3807 l -36.71875,64.80078 H 554.41 Z"
       style="fill:#b5e61d;fill-opacity:1;stroke:none"
       id="path36"
       inkscape:label="Stripe3" /><path
       d="M 554.41,64.791016 H 185.09555 L 148.3807,129.58008 H 554.41 Z"
       style="fill:#00a2e8;fill-opacity:1;stroke:none"
       id="path35"
       inkscape:label="Stripe2" /><path
       d="M 221.81039,0 185.09555,64.791016 H 554.41 V 0 Z"
       style="fill:#99d9ea;fill-opacity:1;stroke:none"
       id="path34"
       inkscape:label="Stripe1" /></g><g
     inkscape:groupmode="layer"
     id="layer1"
     inkscape:label="Flag"><path
       d="M -123.457,0 V 453.54297 H 299.84964 L 171.34573,226.77148 299.84964,0 Z"
       style="fill:#002d5f;fill-opacity:1;stroke:none"
       id="path31"
       inkscape:label="Chevron" /><path
       d="m 84.690634,158.51113 -14.137129,34.13467 -34.131462,-14.13713 14.137128,34.12666 -34.129856,14.13552 34.129856,14.13712 -14.137128,34.13468 34.131462,-14.13713 14.137129,34.12665 14.13714,-34.12665 34.129876,14.13713 -14.13715,-34.13468 34.13147,-14.13712 -34.13147,-14.13552 14.13715,-34.12666 -34.129876,14.13713 z"
       style="fill:#ffffff;fill-opacity:1;stroke:none;stroke-width:0.820939"
       id="Star" /></g></svg>
